<svg xmlns="http://www.w3.org/2000/svg" viewBox="0 0 192 96"><path fill="#FAFAFA" d="M15 42.9c-4 0-6.9-3.1-7.4-6.9l-4 1.1c1.2 5.7 5.6 9.6 11.5 9.6 6.4 0 11.6-5 11.6-11.4 0-5.9-4.1-8.3-8.9-10.4l-2.5-1.1c-2.5-1.1-5.8-2.6-5.8-5.8 0-3.4 2.8-5.7 6.1-5.7 3.1 0 4.9 1.5 6.4 4l3.3-2.1c-2-3.6-5.4-5.7-9.6-5.7 -5.5 0-10.4 3.7-10.4 9.4 0 5.3 3.7 7.5 8 9.5l2.3 1c3.4 1.6 6.8 3 6.8 7.4C22.6 39.9 19 42.9 15 42.9z"/><rect x="41.2" y="9.1" fill="#FAFAFA" width="4.1" height="37"/><polygon fill="#FAFAFA" points="61.6 9.1 61.6 46.1 76 46.1 76 42.3 65.8 42.3 65.8 9.1 "/><polygon fill="#FAFAFA" points="108.1 12.9 108.1 9.1 88.9 9.1 88.9 46.1 108.1 46.1 108.1 42.3 93 42.3 93 27.7 107.6 27.7 107.6 23.9 93 23.9 93 12.9 "/><polygon fill="#FAFAFA" points="152.5 37.7 123.7 7.5 123.7 46.1 127.8 46.1 127.8 17.6 156.6 47.7 156.6 9.1 152.5 9.1 "/><polygon fill="#FAFAFA" points="169.9 12.9 178.9 12.9 178.9 46.1 183 46.1 183 12.9 192 12.9 192 9.1 169.9 9.1 "/><path fill="#FAFAFA" d="M19.3 87.6c3.9 0 7.9-1.3 11-3.6v-5.1c-2.9 2.9-7 4.9-11.2 4.9 -8.3 0-15-7.2-15-15.3 0-8.1 6.7-15.3 14.9-15.3 4.3 0 8.3 1.9 11.3 4.9V53c-3.3-2.5-6.9-3.6-11-3.6 -10.6 0-19.3 8.7-19.3 19.3C0 79.1 8.8 87.6 19.3 87.6zM35.4 68.5c0 10.6 8.7 19.1 19.3 19.1 10.5 0 19.3-8.4 19.3-19.1 0-10.6-8.7-19.2-19.3-19.2C44.2 49.3 35.4 57.9 35.4 68.5zM54.7 53.2c8.5 0 15.2 6.9 15.2 15.3 0 8.3-6.8 15.3-15.2 15.3 -8.4 0-15.2-7-15.2-15.3C39.5 60.1 46.2 53.2 54.7 53.2z"/><polygon fill="#FAFAFA" points="76.9 87 81.1 87 85.9 61.9 86 61.9 97.8 88.5 109.7 61.9 109.8 61.9 114.6 87 118.8 87 111.3 47.9 97.8 78.9 84.4 47.9 "/><rect x="123.6" y="50" fill="#FAFAFA" width="4.1" height="37"/><path fill="#FAFAFA" d="M152.2 53.2c4.3 0 8.3 1.9 11.3 4.9V53c-3.3-2.5-6.9-3.6-11-3.6 -10.6 0-19.3 8.7-19.3 19.3 0 10.5 8.8 19 19.3 19 3.9 0 7.9-1.3 11-3.6v-5.1c-2.9 2.9-7 4.9-11.2 4.9 -8.3 0-15-7.2-15-15.3C137.3 60.3 143.9 53.2 152.2 53.2zM180.1 83.8c-4 0-6.9-3.1-7.4-6.9l-4 1.1c1.2 5.7 5.6 9.6 11.5 9.6 6.4 0 11.6-5 11.6-11.4 0-5.9-4.1-8.3-8.9-10.4l-2.5-1.1c-2.5-1.1-5.8-2.6-5.8-5.8 0-3.4 2.8-5.7 6.1-5.7 3.1 0 4.9 1.5 6.4 4l3.3-2.1c-2-3.6-5.4-5.7-9.6-5.7 -5.5 0-10.4 3.7-10.4 9.4 0 5.3 3.7 7.5 8 9.5l2.3 1c3.4 1.6 6.8 3 6.8 7.4C187.7 80.7 184.1 83.8 180.1 83.8z"/><rect y="94.1" fill="#FAFAFA" width="192" height="1.9"/><rect y="0" fill="#FAFAFA" width="192" height="1.9"/></svg>